<?xml version="1.0" encoding="UTF-8" standalone="no"?>
<!-- This Source Code Form is subject to the terms of the Mozilla Public
   - License, v. 2.0. If a copy of the MPL was not distributed with this
   - file, You can obtain one at http://mozilla.org/MPL/2.0/. -->

<svg xmlns:dc="http://purl.org/dc/elements/1.1/" xmlns:cc="http://creativecommons.org/ns#" xmlns:rdf="http://www.w3.org/1999/02/22-rdf-syntax-ns#" xmlns:svg="http://www.w3.org/2000/svg" xmlns="http://www.w3.org/2000/svg" xmlns:sodipodi="http://sodipodi.sourceforge.net/DTD/sodipodi-0.dtd" xmlns:inkscape="http://www.inkscape.org/namespaces/inkscape" width="18" height="18" viewBox="0 0 18 18" id="svg2" version="1.1" inkscape:version="0.91 r13725" sodipodi:docname="restart.svg">
    <metadata id="metadata10">
        <rdf:RDF>
            <cc:Work rdf:about="">
                <dc:format>image/svg+xml</dc:format>
                <dc:type rdf:resource="http://purl.org/dc/dcmitype/StillImage" />
            </cc:Work>
        </rdf:RDF>
    </metadata>
    <defs id="defs8" />
    <sodipodi:namedview pagecolor="#ffffff" bordercolor="#666666" borderopacity="1" objecttolerance="10" gridtolerance="10" guidetolerance="10" inkscape:pageopacity="0" inkscape:pageshadow="2" inkscape:window-width="1920" inkscape:window-height="1017" id="namedview6" showgrid="false" inkscape:zoom="22.66276" inkscape:cx="2.5723077" inkscape:cy="10.358162" inkscape:window-x="-8" inkscape:window-y="-8" inkscape:window-maximized="1" inkscape:current-layer="svg2" />
    <path d="M 3,9 10,9 7.2,6.2 C 7.9,5.7 8.6,5.5 9.5,5.5 c 2.2,0 4,1.8 4,4 0,2.2 -1.8,4 -4,4 -1.4,0 -2.7,-0.7 -3.4,-1.9 l -2.3,1 C 4.9,14.6 7,16 9.5,16 13.1,16 16,13.1 16,9.5 16,5.9 13.1,3 9.5,3 8,3 6.6,3.5 5.4,4.4 L 3,2 3,9 Z" id="path4" inkscape:connector-curvature="0" />
</svg>
